mtllib textured_cube.mtl
v -0.329455 -1.553395 -0.691683
v -1.269350 0.146142 -1.169355
v 0.488830 1.096137 -1.248810
v 1.428725 -0.603400 -0.771138
v -0.488830 -1.096137 1.248811
v 1.269350 -0.146143 1.169356
v 0.329455 1.553394 0.691684
v -1.428724 0.603400 0.771138
v -0.329455 -1.553395 -0.691683
v -1.428724 0.603400 0.771138
v -1.269350 0.146142 -1.169355
v 0.488830 1.096137 -1.248810
v 1.428725 -0.603400 -0.771138
vt 0.151690 0.022581
vt 0.429045 0.174271
vt 0.277355 0.451626
vt 0.000000 0.299936
vt 0.451160 0.560394
vt 0.393638 0.871242
vt 0.082789 0.813720
vt 0.140311 0.502872
vt 0.762009 0.617916
vt 0.543929 0.237104
vt 0.011554 0.479045
vt 0.000000 0.870654
vt 0.369812 1.000000
vn -0.376286 -0.752340 -0.540734
vn -0.710065 0.406579 -0.574892
vn 0.482536 0.447502 -0.752928
vn 0.775130 -0.593253 -0.217311
vn -0.032857 -0.572426 0.819298
vn 0.877097 0.134254 0.461169
vn -0.073393 0.877264 0.474364
vn -0.942162 0.052420 0.331034
vn -0.376286 -0.752340 -0.540734
vn -0.942162 0.052420 0.331034
vn -0.710065 0.406579 -0.574892
vn 0.482536 0.447502 -0.752928
vn 0.775130 -0.593253 -0.217311
usemtl __PS_3D_Default
f 1/1/1 2/2/2 3/3/3
f 1/1/1 3/3/3 4/4/4
f 5/5/5 6/6/6 7/7/7
f 5/5/5 7/7/7 8/8/8
f 9/9/9 5/5/5 8/8/8
f 1/1/1 10/10/10 2/2/2
f 11/11/11 8/8/8 7/7/7
f 11/11/11 7/7/7 12/12/12
f 12/12/12 7/7/7 6/6/6
f 12/12/12 6/6/6 13/13/13
f 5/5/5 9/9/9 13/13/13
f 5/5/5 13/13/13 6/6/6
